<?xml version="1.0" encoding="UTF-8"?>
<!DOCTYPE svg PUBLIC "-//W3C//DTD SVG 1.1//EN" "http://www.w3.org/Graphics/SVG/1.1/DTD/svg11.dtd">
<!-- Creator: CorelDRAW X5 -->
<svg xmlns="http://www.w3.org/2000/svg" xml:space="preserve" width="299px" height="112px" style="shape-rendering:geometricPrecision; text-rendering:geometricPrecision; image-rendering:optimizeQuality; fill-rule:evenodd; clip-rule:evenodd" viewBox="0 0 299 112.125" xmlns:xlink="http://www.w3.org/1999/xlink" version="1.1" enable-background="new 0 0 64 64">
 <defs>
  <style type="text/css">
   <![CDATA[
    .fil1 {fill:#0CB5DD}
    .fil0 {fill:#FFC731}
    .fil2 {fill:#3860A9}
   ]]>
  </style>
 </defs>
 <g id="Слой_x0020_1">
  <metadata id="CorelCorpID_0Corel-Layer"/>
  <path class="fil0" d="M161.924 96.565c-74.7732,0 -135.383,-21.2253 -135.383,-47.4169 0,-23.4169 48.4791,-42.8624 112.21,-46.7128 -76.2629,2.01152 -136.414,25.2386 -136.414,53.6189 0,29.666 65.8854,53.7355 147.165,53.7355 81.2742,0 147.161,-24.0695 147.161,-53.7355 0,-0.652567 -0.0455975,-1.28944 -0.10465,-1.92855 -7.09378,23.8505 -64.6625,42.4393 -134.634,42.4393z"/>
  <path class="fil1" d="M174.341 107.581c-81.2742,0 -147.16,-23.8101 -147.16,-53.1876 0,-25.6064 50.0317,-46.9796 116.68,-52.0589 -78.6654,1.08612 -141.525,24.7101 -141.525,53.7198 0,29.666 65.8854,53.7355 147.165,53.7355 16.4547,0 32.289,-0.988942 47.0686,-2.80462 -7.25,0.393932 -14.6667,0.595758 -22.2292,0.595758z"/>
  <g id="_152200352">
   <path id="_152205248" class="fil2" d="M94.5872 53.4477l2.09076 -6.46363 0.061295 0.0007475 1.93603 6.46363 -4.08808 -0.0007475zm0.67275 -13.4864l0 0.0037375c-0.915688,0.0156975 -1.72299,0.452985 -2.25297,1.12349l-7.54153 19.8506 6.69536 0.0007475 0.96876 -2.99448 6.877 0 0.907465 2.99448 6.9069 0 -7.87118 -20.9778 -4.68981 -0.0007475z"/>
   <path id="_152209904" class="fil2" d="M126.333 45.8614l0 0c0.0037375,-0.0037375 0.0082225,-0.0082225 0.01196,-0.01196l0.50232 -0.539695c0.371507,-0.486623 0.59501,-1.08986 0.59501,-1.74616l0.0037375 -0.0007475 0 -3.59921 -18.2622 0 0 5.37751 9.48278 0 -9.48727 9.94624c-0.328153,0.437287 -0.518017,0.939608 -0.571838,1.45538l0 4.19871 19.3251 0 0 -5.37751 -10.6302 0 9.03055 -9.70255z"/>
   <path id="_152210096" class="fil2" d="M256.649 48.1554c-3.05578,-0.818512 -6.14893,-1.14293 -6.26928,-2.63867 0,-1.17881 1.48304,-1.41427 2.39125,-1.41427 0.668265,0 1.42623,0.14651 1.96966,0.533715 0.54418,0.352072 0.91195,0.879807 0.787118,1.67291l6.30142 0.0007475c-0.177905,-5.11439 -4.32952,-6.84934 -9.02681,-6.84934 -4.4536,0 -8.72557,2.08627 -8.72557,6.93381 0,4.23459 3.91017,5.14205 7.33148,6.0839 3.72778,1.02856 4.6659,1.32083 4.6659,2.41517 0,1.55256 -1.66543,1.90463 -2.75902,1.90463 -1.2401,0 -2.69175,-0.26312 -3.17837,-1.5249 -0.150248,-0.377488 -0.2392,-0.850655 -0.2392,-1.38213l-6.6677 0c0.061295,6.70283 7.0564,7.55124 9.51119,7.55124 4.82212,0 9.99781,-1.76186 9.99781,-7.22683 -0.0022425,-3.85112 -3.03037,-5.23325 -6.08988,-6.05998z"/>
   <path id="_152210288" class="fil2" d="M211.241 41.7852l-2.63419 10.5196 -0.0575575 0 -2.61102 -10.4187c-0.219765,-1.06967 -1.15115,-1.88071 -2.27838,-1.92406l-7.68281 -0.0007475 0 20.9778 6.30142 0.0007475 0 -13.455 0.061295 0 3.75768 13.455 4.96415 0 3.75395 -13.455 0.061295 0 0 13.455 6.30666 0 0 -20.9786 -7.69178 0c-1.09135,0.043355 -1.99508,0.805058 -2.25072,1.8239z"/>
   <path id="_152210480" class="fil2" d="M239.332 39.9613l0 0.0082225c-0.92391,0.01196 -1.74242,0.455227 -2.26642,1.13545l0 0 -3.20603 6.58622 -3.07521 -6.59818c-0.0156975,-0.02392 -0.031395,-0.0396175 -0.0396175,-0.0650325 -0.529978,-0.633133 -1.31336,-1.0465 -2.20139,-1.05846l0 -0.0082225 -5.64437 0 7.59834 13.2487 0 7.72915 6.66322 0.0007475 0 -7.72915 7.75681 -13.2487 -5.58532 -0.0007475z"/>
   <path id="_152210672" class="fil2" d="M137.774 53.4477l2.09076 -6.46363 0.0605475 0.0007475 1.93827 6.46363 -4.08957 -0.0007475zm0.676488 -13.4864l0 0.0037375c-0.112873,0.0037375 -0.219765,0.01196 -0.328153,0.02392 -0.049335,0.0082225 -0.09269,0.019435 -0.142772,0.0276575 -0.0575575,0.01196 -0.112873,0.019435 -0.17043,0.03588 -0.0650325,0.01196 -0.124832,0.03588 -0.186127,0.0530725 -0.0396175,0.01196 -0.073255,0.019435 -0.112873,0.03588 -0.073255,0.0276575 -0.142773,0.0575575 -0.211543,0.0889525 -0.02392,0.0082225 -0.0455975,0.019435 -0.0695175,0.0276575 -0.0769925,0.04186 -0.150248,0.085215 -0.22724,0.126327 -0.01196,0.0082225 -0.02392,0.01196 -0.031395,0.019435 -0.08073,0.049335 -0.15847,0.100912 -0.231725,0.15847 -0.0037375,0.0037375 -0.01196,0.0082225 -0.0156975,0.01196 -0.0769925,0.061295 -0.150248,0.124832 -0.223502,0.189865l0 0.0037375c-0.073255,0.0695175 -0.142773,0.138288 -0.207805,0.21528 -0.0082225,0.01196 -0.02392,0.02392 -0.031395,0.03588 -0.0396175,0.061295 -0.0769925,0.124832 -0.109135,0.186127l-7.49742 19.7377 6.69536 0.0007475 0.973245 -2.99448 6.87251 0 0.91195 2.99448 6.90615 0 -7.87566 -20.9778 -4.68682 0 0 -0.004485z"/>
   <polygon id="_152211032" class="fil2" points="187.048,47.248 180.806,47.248 180.806,39.9613 174.143,39.9613 174.143,60.9414 180.806,60.9414 180.806,52.6255 187.048,52.6255 187.048,60.9414 193.717,60.9414 193.717,39.9613 187.048,39.9613 "/>
   <path id="_152210864" class="fil2" d="M84.5878 39.9613l-6.88074 0 0 0.0082225c-0.919425,0.01196 -1.7342,0.452985 -2.26044,1.12349l-5.00601 6.09512 -0.061295 0 0 -7.22683 -6.66322 0 0 20.9778 6.66322 0.0007475 0 -6.20051 1.13919 -1.21244 4.83558 7.41296 8.04161 0 -8.38994 -12.0564 8.58205 -8.92216z"/>
   <path id="_152211296" class="fil2" d="M172.691 39.9613l-6.88074 0 0 0.0082225c-0.919425,0.01196 -1.73046,0.452985 -2.2567,1.12349l-5.00974 6.09512 -0.05681 0 0 -7.22683 -6.6677 0 0 20.9778 6.6677 0.0007475 0 -6.20051 1.13545 -1.21244 4.83931 7.41296 8.04161 0 -8.38994 -12.0564 8.57756 -8.92216z"/>
  </g>
 </g>
</svg>