<svg width="169" height="53" viewBox="0 0 169 53" fill="none" xmlns="http://www.w3.org/2000/svg">
<path fill-rule="evenodd" clip-rule="evenodd" d="M35.0326 52.0256L29.9034 39.3295L36.9101 21.9873L49.0461 52.0256H35.0326ZM28.0263 0L21.0197 17.341L14.0136 0H0L21.0197 52.0256L42.0399 0H28.0263Z" fill="white"/>
<path fill-rule="evenodd" clip-rule="evenodd" d="M63.5832 18.044C63.5832 18.916 63.6892 19.6095 63.9011 20.1243C64.1129 20.6389 64.3674 21.0263 64.664 21.2868C64.9606 21.5472 65.2725 21.7166 65.5996 21.7955C65.9265 21.8743 66.205 21.9136 66.4353 21.9136C66.7864 21.9136 67.1285 21.844 67.4616 21.7045C67.7946 21.5653 68.0882 21.3414 68.3425 21.0325C68.5968 20.7235 68.8028 20.3209 68.9602 19.8244C69.1177 19.3278 69.1964 18.7222 69.1964 18.0078C69.1964 17.3418 69.1207 16.7696 68.9694 16.2912C68.8179 15.8128 68.6089 15.4192 68.3425 15.1102C68.0761 14.8014 67.7703 14.5744 67.4252 14.429C67.08 14.2837 66.7198 14.211 66.3444 14.211C65.9569 14.211 65.5964 14.2837 65.2634 14.429C64.9304 14.5744 64.6397 14.8014 64.3915 15.1102C64.1433 15.4192 63.9464 15.8156 63.8011 16.3004C63.6558 16.7847 63.5832 17.3658 63.5832 18.044ZM70.686 9.96045V22.6765H69.1964V21.405H69.142C69.0692 21.5502 68.9602 21.7197 68.8149 21.9136C68.6696 22.1072 68.4758 22.286 68.2336 22.4494C67.9914 22.613 67.6948 22.7522 67.3435 22.8673C66.9923 22.9823 66.5744 23.0399 66.0901 23.0399C65.4118 23.0399 64.8123 22.9188 64.2916 22.6765C63.7709 22.4341 63.3349 22.0921 62.9837 21.65C62.6324 21.208 62.3631 20.6812 62.1752 20.0695C61.9875 19.458 61.8937 18.7828 61.8937 18.044C61.8937 17.5599 61.9421 17.0298 62.039 16.4548C62.136 15.8794 62.3358 15.3405 62.6384 14.8381C62.9412 14.3352 63.3621 13.9175 63.9011 13.5845C64.4399 13.2512 65.1575 13.085 66.0537 13.085C66.6713 13.085 67.2375 13.1876 67.7522 13.3938C68.267 13.5996 68.7119 14.0173 69.0875 14.647V9.96045H70.686ZM79.878 17.2992C79.8658 16.9966 79.8235 16.6636 79.7507 16.3004C79.6782 15.9371 79.5479 15.6009 79.3602 15.2919C79.1726 14.9832 78.9151 14.7257 78.5882 14.5201C78.2612 14.314 77.8373 14.211 77.3166 14.211C76.7353 14.211 76.2569 14.3171 75.8816 14.5291C75.5059 14.741 75.2123 15.0043 75.0004 15.3192C74.7884 15.6341 74.6462 15.9701 74.5735 16.3276C74.5007 16.6847 74.4645 17.0086 74.4645 17.2992H79.878ZM81.4765 20.0059C81.416 20.3332 81.3039 20.6751 81.1405 21.0325C80.9771 21.3895 80.7409 21.7166 80.4321 22.0134C80.1231 22.3101 79.7265 22.5552 79.2421 22.7491C78.7577 22.9428 78.1582 23.0399 77.4437 23.0399C76.6808 23.0399 76.0358 22.9369 75.5089 22.7308C74.9823 22.5251 74.5462 22.2615 74.2011 21.9408C73.8559 21.6197 73.5866 21.2654 73.3927 20.8782C73.1989 20.4905 73.0567 20.1151 72.9658 19.7518C72.875 19.3886 72.8205 19.0584 72.8022 18.7615C72.7841 18.4649 72.7752 18.2438 72.7752 18.0985C72.7752 17.8927 72.7871 17.6233 72.8114 17.2903C72.8356 16.9572 72.8962 16.6062 72.9931 16.2366C73.0899 15.8673 73.2353 15.4949 73.4291 15.1194C73.6227 14.744 73.8862 14.405 74.2192 14.102C74.5522 13.7993 74.9672 13.5543 75.4636 13.3664C75.9602 13.1787 76.5657 13.085 77.2802 13.085C78.2008 13.085 78.9364 13.2453 79.4873 13.5664C80.0384 13.8873 80.4623 14.2899 80.7589 14.7742C81.0557 15.2586 81.2556 15.7884 81.3584 16.3638C81.4614 16.9391 81.525 17.4749 81.5493 17.9716C81.5493 18.044 81.5521 18.1197 81.5584 18.1985C81.564 18.2774 81.5674 18.3529 81.5674 18.4255H74.4645C74.4645 18.8253 74.519 19.231 74.6279 19.6427C74.7369 20.0545 74.9065 20.4269 75.1368 20.7599C75.3668 21.0929 75.6666 21.3686 76.0359 21.5866C76.4052 21.8045 76.8563 21.9136 77.3892 21.9136C77.7647 21.9136 78.1037 21.8619 78.4065 21.7591C78.7093 21.6564 78.9666 21.5168 79.1785 21.3414C79.3905 21.1659 79.5601 20.9627 79.6871 20.7326C79.8144 20.5026 79.9022 20.2602 79.9505 20.0059H81.4765ZM89.2153 13.4483H90.9228L87.5077 22.6765H85.691L82.2759 13.4483H83.9834L86.5993 21.0778L89.2153 13.4483ZM98.7705 17.2992C98.7584 16.9966 98.716 16.6636 98.6433 16.3004C98.5707 15.9371 98.4405 15.6009 98.2528 15.2919C98.0651 14.9832 97.8077 14.7257 97.4808 14.5201C97.1538 14.314 96.7299 14.211 96.2092 14.211C95.6278 14.211 95.1495 14.3171 94.7741 14.5291C94.3985 14.741 94.1049 15.0043 93.8929 15.3192C93.681 15.6341 93.5388 15.9701 93.466 16.3276C93.3933 16.6847 93.3571 17.0086 93.3571 17.2992H98.7705ZM100.369 20.0059C100.309 20.3332 100.196 20.6751 100.033 21.0325C99.8696 21.3895 99.6334 21.7166 99.3246 22.0134C99.0157 22.3101 98.619 22.5552 98.1347 22.7491C97.6502 22.9428 97.0507 23.0399 96.3362 23.0399C95.5733 23.0399 94.9283 22.9369 94.4015 22.7308C93.8748 22.5251 93.4388 22.2615 93.0937 21.9408C92.7485 21.6197 92.4791 21.2654 92.2853 20.8782C92.0914 20.4905 91.9493 20.1151 91.8584 19.7518C91.7676 19.3886 91.7131 19.0584 91.6948 18.7615C91.6767 18.4649 91.6676 18.2438 91.6676 18.0985C91.6676 17.8927 91.6797 17.6233 91.7039 17.2903C91.7281 16.9572 91.7886 16.6062 91.8857 16.2366C91.9825 15.8673 92.1278 15.4949 92.3217 15.1194C92.5153 14.744 92.7787 14.405 93.1118 14.102C93.4448 13.7993 93.8597 13.5543 94.3561 13.3664C94.8526 13.1787 95.4582 13.085 96.1728 13.085C97.0931 13.085 97.8289 13.2453 98.3799 13.5664C98.931 13.8873 99.3549 14.2899 99.6515 14.7742C99.9483 15.2586 100.148 15.7884 100.251 16.3638C100.354 16.9391 100.418 17.4749 100.442 17.9716C100.442 18.044 100.445 18.1197 100.451 18.1985C100.457 18.2774 100.46 18.3529 100.46 18.4255H93.3571C93.3571 18.8253 93.4116 19.231 93.5205 19.6427C93.6295 20.0545 93.7991 20.4269 94.0291 20.7599C94.2593 21.0929 94.5589 21.3686 94.9283 21.5866C95.2978 21.8045 95.7489 21.9136 96.2817 21.9136C96.6573 21.9136 96.9962 21.8619 97.2991 21.7591C97.6018 21.6564 97.8591 21.5168 98.0711 21.3414C98.283 21.1659 98.4526 20.9627 98.5797 20.7326C98.7069 20.5026 98.7948 20.2602 98.8431 20.0059H100.369ZM104.148 9.96045V22.6765H102.549V9.96045H104.148ZM107.926 18.0623C107.926 18.9796 108.041 19.6944 108.271 20.2149C108.501 20.7326 108.774 21.1173 109.089 21.3714C109.404 21.6228 109.718 21.7774 110.033 21.8317C110.348 21.8864 110.596 21.9136 110.778 21.9136C110.96 21.9136 111.208 21.8864 111.523 21.8317C111.838 21.7774 112.153 21.6228 112.468 21.3714C112.782 21.1173 113.055 20.7326 113.285 20.2149C113.515 19.6944 113.63 18.9796 113.63 18.0623C113.63 17.1448 113.515 16.4304 113.285 15.9095C113.055 15.392 112.782 15.0074 112.468 14.753C112.153 14.5018 111.838 14.3475 111.523 14.2927C111.208 14.2382 110.96 14.211 110.778 14.211C110.596 14.211 110.348 14.2382 110.033 14.2927C109.718 14.3475 109.404 14.5018 109.089 14.753C108.774 15.0074 108.501 15.392 108.271 15.9095C108.041 16.4304 107.926 17.1448 107.926 18.0623ZM106.237 18.0623C106.237 17.4447 106.315 16.839 106.473 16.2457C106.63 15.6522 106.888 15.1226 107.245 14.6563C107.602 14.1899 108.071 13.8115 108.653 13.5207C109.234 13.2302 109.943 13.085 110.778 13.085C111.614 13.085 112.322 13.2302 112.904 13.5207C113.485 13.8115 113.954 14.1899 114.311 14.6563C114.669 15.1226 114.926 15.6522 115.083 16.2457C115.241 16.839 115.32 17.4447 115.32 18.0623C115.32 18.68 115.241 19.2854 115.083 19.8789C114.926 20.4722 114.669 21.0022 114.311 21.4683C113.954 21.9348 113.485 22.3132 112.904 22.6037C112.322 22.8944 111.614 23.0399 110.778 23.0399C109.943 23.0399 109.234 22.8944 108.653 22.6037C108.071 22.3132 107.602 21.9348 107.245 21.4683C106.888 21.0022 106.63 20.4722 106.473 19.8789C106.315 19.2854 106.237 18.68 106.237 18.0623ZM118.898 18.0985C118.898 18.8132 118.989 19.4127 119.171 19.8972C119.352 20.3815 119.586 20.7751 119.87 21.0778C120.155 21.3806 120.464 21.5957 120.797 21.7229C121.13 21.8498 121.448 21.9136 121.75 21.9136C122.077 21.9136 122.401 21.8498 122.722 21.7229C123.043 21.5957 123.334 21.3835 123.594 21.0869C123.854 20.7901 124.066 20.3966 124.23 19.9064C124.394 19.4158 124.475 18.8009 124.475 18.0623C124.475 16.8753 124.233 15.9371 123.748 15.2466C123.264 14.5563 122.568 14.211 121.66 14.211C121.454 14.211 121.193 14.2506 120.878 14.3292C120.563 14.4078 120.261 14.5804 119.97 14.847C119.68 15.1134 119.428 15.5041 119.216 16.0187C119.004 16.5332 118.898 17.2268 118.898 18.0985ZM118.898 13.4483V14.72H118.953C119.183 14.3687 119.434 14.0869 119.707 13.875C119.979 13.6631 120.252 13.4968 120.524 13.3753C120.797 13.2543 121.06 13.1755 121.314 13.1393C121.569 13.1031 121.799 13.085 122.005 13.085C122.574 13.085 123.11 13.1819 123.612 13.3753C124.115 13.5692 124.557 13.8692 124.938 14.2746C125.32 14.6804 125.62 15.1983 125.838 15.828C126.056 16.4576 126.165 17.2024 126.165 18.0623C126.165 18.9586 126.05 19.7216 125.82 20.3513C125.589 20.9809 125.281 21.4955 124.893 21.8955C124.506 22.2951 124.063 22.5856 123.567 22.7672C123.07 22.9489 122.562 23.0399 122.041 23.0399C121.944 23.0399 121.771 23.0276 121.523 23.0035C121.275 22.9791 120.999 22.9095 120.697 22.7944C120.394 22.6796 120.088 22.5099 119.779 22.286C119.471 22.0617 119.213 21.7502 119.007 21.3505V26.0371H117.409V13.4483H118.898ZM129.852 13.4483V14.7016L129.834 14.8106C129.955 14.544 130.119 14.3048 130.325 14.093C130.531 13.881 130.761 13.6996 131.015 13.5479C131.269 13.3966 131.539 13.2815 131.823 13.2028C132.108 13.1242 132.396 13.085 132.686 13.085C133.086 13.085 133.437 13.1425 133.74 13.2574C134.043 13.3726 134.3 13.5239 134.512 13.7115C134.724 13.8994 134.896 14.1113 135.03 14.3475C135.163 14.5833 135.26 14.8226 135.32 15.0651C135.405 14.8834 135.532 14.6804 135.702 14.4563C135.871 14.2325 136.083 14.0173 136.338 13.8115C136.592 13.6056 136.898 13.433 137.255 13.2938C137.612 13.1546 138.033 13.085 138.518 13.085C139.22 13.085 139.771 13.2272 140.171 13.5117C140.57 13.7962 140.867 14.1322 141.061 14.5201C141.254 14.9074 141.373 15.3071 141.415 15.7188C141.457 16.1306 141.479 16.4636 141.479 16.7181V22.6765H139.88V16.8272C139.88 16.5848 139.865 16.3123 139.835 16.0095C139.804 15.7068 139.729 15.4222 139.607 15.1558C139.486 14.8892 139.308 14.6655 139.071 14.4837C138.835 14.302 138.511 14.211 138.1 14.211C137.833 14.211 137.555 14.2537 137.264 14.3384C136.973 14.4231 136.71 14.5776 136.474 14.8014C136.238 15.0257 136.044 15.3283 135.893 15.7097C135.741 16.0912 135.666 16.5789 135.666 17.1724V22.6765H134.067V16.8453C134.067 16.5059 134.043 16.179 133.994 15.8642C133.946 15.5492 133.855 15.2707 133.722 15.0287C133.588 14.7865 133.407 14.5897 133.177 14.4382C132.947 14.2867 132.65 14.211 132.287 14.211C131.96 14.211 131.648 14.2809 131.351 14.4199C131.054 14.5595 130.794 14.7561 130.57 15.0106C130.346 15.2649 130.17 15.5765 130.043 15.9461C129.916 16.3152 129.852 16.724 129.852 17.1724V22.6765H128.254V13.4483H129.852ZM150.671 17.2992C150.658 16.9966 150.616 16.6636 150.543 16.3004C150.471 15.9371 150.34 15.6009 150.153 15.2919C149.965 14.9832 149.708 14.7257 149.381 14.5201C149.054 14.314 148.63 14.211 148.109 14.211C147.528 14.211 147.049 14.3171 146.674 14.5291C146.299 14.741 146.005 15.0043 145.793 15.3192C145.581 15.6341 145.439 15.9701 145.366 16.3276C145.293 16.6847 145.257 17.0086 145.257 17.2992H150.671ZM152.269 20.0059C152.209 20.3332 152.096 20.6751 151.933 21.0325C151.77 21.3895 151.533 21.7166 151.225 22.0134C150.916 22.3101 150.519 22.5552 150.035 22.7491C149.55 22.9428 148.951 23.0399 148.236 23.0399C147.473 23.0399 146.828 22.9369 146.302 22.7308C145.775 22.5251 145.339 22.2615 144.994 21.9408C144.649 21.6197 144.379 21.2654 144.185 20.8782C143.991 20.4905 143.849 20.1151 143.758 19.7518C143.668 19.3886 143.613 19.0584 143.595 18.7615C143.577 18.4649 143.568 18.2438 143.568 18.0985C143.568 17.8927 143.58 17.6233 143.604 17.2903C143.628 16.9572 143.689 16.6062 143.786 16.2366C143.882 15.8673 144.028 15.4949 144.222 15.1194C144.415 14.744 144.679 14.405 145.012 14.102C145.345 13.7993 145.76 13.5543 146.256 13.3664C146.753 13.1787 147.358 13.085 148.073 13.085C148.993 13.085 149.729 13.2453 150.28 13.5664C150.831 13.8873 151.255 14.2899 151.552 14.7742C151.848 15.2586 152.048 15.7884 152.151 16.3638C152.254 16.9391 152.318 17.4749 152.342 17.9716C152.342 18.044 152.345 18.1197 152.351 18.1985C152.357 18.2774 152.36 18.3529 152.36 18.4255H145.257C145.257 18.8253 145.312 19.231 145.421 19.6427C145.53 20.0545 145.699 20.4269 145.929 20.7599C146.159 21.0929 146.459 21.3686 146.828 21.5866C147.198 21.8045 147.649 21.9136 148.182 21.9136C148.557 21.9136 148.896 21.8619 149.199 21.7591C149.502 21.6564 149.759 21.5168 149.971 21.3414C150.183 21.1659 150.353 20.9627 150.48 20.7326C150.607 20.5026 150.695 20.2602 150.743 20.0059H152.269ZM156.048 13.4483V14.738C156.363 14.2776 156.786 13.8873 157.319 13.5664C157.852 13.2453 158.482 13.085 159.208 13.085C159.814 13.085 160.314 13.1787 160.707 13.3664C161.101 13.5543 161.41 13.8056 161.634 14.1201C161.858 14.4352 162.015 14.8014 162.106 15.2194C162.197 15.6373 162.242 16.0761 162.242 16.5365V22.6765H160.644V17.027C160.644 16.7847 160.635 16.5002 160.616 16.1731C160.598 15.8461 160.532 15.5371 160.416 15.2466C160.302 14.9557 160.111 14.7108 159.844 14.511C159.578 14.3112 159.196 14.211 158.7 14.211C158.482 14.211 158.222 14.2473 157.919 14.3203C157.616 14.3927 157.325 14.5474 157.047 14.7832C156.768 15.0193 156.532 15.3645 156.338 15.8188C156.144 16.273 156.048 16.8817 156.048 17.6444V22.6765H154.449V13.4483H156.048ZM165.439 13.4483V10.6871H167.038V13.4483H169V14.5744H167.038V20.4422C167.038 20.6117 167.041 20.772 167.047 20.9233C167.053 21.0748 167.083 21.211 167.138 21.3321C167.192 21.4533 167.286 21.5472 167.419 21.6138C167.553 21.6804 167.746 21.7138 168.001 21.7138C168.17 21.7138 168.34 21.6985 168.509 21.6681C168.679 21.6378 168.842 21.5987 169 21.5502V22.6765C168.746 22.7856 168.473 22.8731 168.182 22.9397C167.892 23.0063 167.607 23.0399 167.329 23.0399C166.856 23.0399 166.49 22.967 166.23 22.8218C165.969 22.6765 165.782 22.4916 165.666 22.2679C165.551 22.0436 165.485 21.7985 165.467 21.5321C165.449 21.2654 165.439 21.0111 165.439 20.769V14.5744H163.786V13.4483H165.439ZM66.4897 37.795C66.6351 37.795 66.8591 37.7558 67.1618 37.677C67.4645 37.5983 67.7674 37.4226 68.0701 37.1504C68.3729 36.8776 68.6394 36.4811 68.8694 35.9602C69.0994 35.4397 69.2145 34.7311 69.2145 33.835C69.2145 32.6722 68.9724 31.758 68.4879 31.0918C68.0036 30.4257 67.289 30.0929 66.3444 30.0929C65.8962 30.0929 65.5179 30.1685 65.209 30.3197C64.9002 30.4711 64.6459 30.6617 64.4461 30.892C64.2463 31.122 64.0948 31.3825 63.9918 31.6733C63.889 31.9638 63.8102 32.2455 63.7557 32.5177C63.7011 32.7905 63.6709 33.0446 63.6649 33.2809C63.6586 33.5171 63.6558 33.6955 63.6558 33.8166C63.6558 34.7492 63.7679 35.4819 63.9918 36.0149C64.2159 36.5478 64.4822 36.9442 64.7912 37.2047C65.1 37.4651 65.4149 37.6287 65.7358 37.6953C66.0567 37.7617 66.308 37.795 66.4897 37.795ZM64.1281 39.5996C64.2007 39.869 64.3219 40.0899 64.4914 40.2597C64.661 40.4323 64.8578 40.5683 65.0819 40.6714C65.3058 40.7774 65.5481 40.8468 65.8084 40.8834C66.0688 40.9198 66.3201 40.9379 66.5623 40.9379C67.1921 40.9379 67.6765 40.8104 68.0156 40.5531C68.3546 40.299 68.6059 40.0082 68.7696 39.6784C68.933 39.3513 69.0299 39.0274 69.0602 38.7123C69.0905 38.3946 69.1056 38.1766 69.1056 38.0554V37.0502C68.8875 37.4017 68.6756 37.6953 68.4697 37.9312C68.2638 38.1673 68.0429 38.358 67.8067 38.5035C67.5705 38.6487 67.3162 38.7549 67.0438 38.8213C66.7713 38.8878 66.4655 38.9214 66.1263 38.9214C65.5813 38.9214 65.0576 38.8246 64.555 38.6306C64.0524 38.4367 63.6104 38.1373 63.2289 37.7313C62.8474 37.3259 62.5416 36.805 62.3116 36.169C62.0815 35.5334 61.9664 34.7673 61.9664 33.8712C61.9664 33.7259 61.972 33.5049 61.9845 33.208C61.9966 32.9113 62.039 32.5815 62.1117 32.2183C62.1843 31.8548 62.3024 31.4825 62.4659 31.1007C62.6295 30.7194 62.8595 30.3681 63.1563 30.0474C63.453 29.7263 63.8283 29.4658 64.2824 29.266C64.7368 29.0662 65.2968 28.9666 65.9629 28.9666C66.7259 28.9666 67.3769 29.1056 67.9157 29.3843C68.4547 29.6628 68.8694 30.0685 69.16 30.6015H69.2145V29.3298H70.7041V38.3218C70.7041 38.9153 70.6224 39.4179 70.459 39.8296C70.2956 40.2414 70.0866 40.5867 69.8323 40.8653C69.578 41.1434 69.2903 41.3617 68.9694 41.5191C68.6485 41.6766 68.3366 41.7978 68.0338 41.8823C67.731 41.9671 67.4464 42.0187 67.18 42.0369C66.9136 42.055 66.7077 42.064 66.5623 42.064C66.3444 42.064 66.0416 42.0518 65.6541 42.0278C65.2666 42.0033 64.8699 41.9159 64.4641 41.7642C64.0584 41.6129 63.683 41.3737 63.3378 41.0407C62.9927 40.7078 62.7475 40.2295 62.6022 39.5996H64.1281ZM78.2976 30.0929C77.7526 30.1168 77.2711 30.1897 76.8534 30.3106C76.4355 30.4317 76.0783 30.6196 75.7815 30.8736C75.4849 31.1284 75.2487 31.455 75.0731 31.8548C74.8975 32.2546 74.7914 32.7448 74.7552 33.3263C74.7431 33.4957 74.7369 33.6593 74.7369 33.8166C74.7369 33.9743 74.7369 34.1377 74.7369 34.3071V38.5582H73.1384V29.3298H74.7369V31.1099H74.7733C74.8823 30.7709 75.0427 30.4711 75.2546 30.2106C75.4666 29.9505 75.709 29.7323 75.9814 29.5569C76.2539 29.3811 76.5476 29.2451 76.8623 29.1481C77.1773 29.0513 77.4983 28.9966 77.8252 28.9846L78.2976 28.9666V30.0929ZM80.5502 33.9438C80.5502 34.8611 80.6651 35.5759 80.8953 36.0964C81.1254 36.6144 81.3978 36.9988 81.7127 37.253C82.0276 37.5045 82.3425 37.6589 82.6573 37.7132C82.9722 37.7677 83.2205 37.795 83.4021 37.795C83.5838 37.795 83.8321 37.7677 84.147 37.7132C84.4618 37.6589 84.7767 37.5045 85.0916 37.253C85.4065 36.9988 85.6789 36.6144 85.9089 36.0964C86.1392 35.5759 86.2541 34.8611 86.2541 33.9438C86.2541 33.0265 86.1392 32.3121 85.9089 31.7912C85.6789 31.2733 85.4065 30.8892 85.0916 30.6345C84.7767 30.3836 84.4618 30.2291 84.147 30.1744C83.8321 30.1199 83.5838 30.0929 83.4021 30.0929C83.2205 30.0929 82.9722 30.1199 82.6573 30.1744C82.3425 30.2291 82.0276 30.3836 81.7127 30.6345C81.3978 30.8892 81.1254 31.2733 80.8953 31.7912C80.6651 32.3121 80.5502 33.0265 80.5502 33.9438ZM78.8606 33.9438C78.8606 33.3263 78.9394 32.7207 79.0968 32.1272C79.2543 31.5337 79.5116 31.0041 79.8688 30.5376C80.2261 30.0714 80.6953 29.6931 81.2767 29.4024C81.858 29.1119 82.5666 28.9666 83.4021 28.9666C84.2377 28.9666 84.9462 29.1119 85.5276 29.4024C86.109 29.6931 86.5782 30.0714 86.9355 30.5376C87.2927 31.0041 87.55 31.5337 87.7075 32.1272C87.8649 32.7207 87.9437 33.3263 87.9437 33.9438C87.9437 34.5615 87.8649 35.167 87.7075 35.7604C87.55 36.3537 87.2927 36.8838 86.9355 37.35C86.5782 37.8162 86.109 38.1947 85.5276 38.4852C84.9462 38.7761 84.2377 38.9214 83.4021 38.9214C82.5666 38.9214 81.858 38.7761 81.2767 38.4852C80.6953 38.1947 80.2261 37.8162 79.8688 37.35C79.5116 36.8838 79.2543 36.3537 79.0968 35.7604C78.9394 35.167 78.8606 34.5615 78.8606 33.9438ZM96.2272 38.5582V37.25H96.1911C95.9608 37.6498 95.6823 37.9615 95.3554 38.1856C95.0283 38.4095 94.7104 38.5763 94.4017 38.6851C94.0927 38.7942 93.8142 38.8608 93.566 38.8849C93.3178 38.9093 93.1511 38.9214 93.0664 38.9214C92.3882 38.9214 91.8462 38.8063 91.4405 38.5763C91.0349 38.3463 90.7291 38.0554 90.5231 37.7043C90.3174 37.3531 90.1841 36.9776 90.1235 36.578C90.0631 36.1781 90.0326 35.8029 90.0326 35.4519V29.3298H91.6314V34.9795C91.6314 35.5606 91.6797 36.033 91.7767 36.3965C91.8735 36.7597 92.0067 37.0474 92.1763 37.2593C92.3459 37.471 92.5487 37.6133 92.7849 37.6862C93.0209 37.7586 93.2843 37.795 93.575 37.795C94.2413 37.795 94.7558 37.6468 95.1192 37.35C95.4825 37.0533 95.7459 36.7111 95.9093 36.3235C96.073 35.9362 96.1668 35.5547 96.1911 35.1791C96.2151 34.8037 96.2272 34.5313 96.2272 34.3615V29.3298H97.8259V38.5582H96.2272ZM101.931 33.9802C101.931 34.6948 102.022 35.2942 102.204 35.7785C102.386 36.2632 102.619 36.6565 102.903 36.9595C103.188 37.2621 103.497 37.4772 103.83 37.6043C104.163 37.7313 104.481 37.795 104.783 37.795C105.11 37.795 105.434 37.7313 105.755 37.6043C106.076 37.4772 106.367 37.2653 106.627 36.9686C106.888 36.6718 107.1 36.2782 107.263 35.7877C107.426 35.2974 107.508 34.6827 107.508 33.9438C107.508 32.7569 107.266 31.8185 106.782 31.1284C106.297 30.4381 105.601 30.0929 104.693 30.0929C104.487 30.0929 104.226 30.1323 103.911 30.2106C103.597 30.2893 103.294 30.4619 103.003 30.7285C102.713 30.9951 102.461 31.3856 102.249 31.9004C102.037 32.4149 101.931 33.1084 101.931 33.9802ZM101.931 29.3298V30.6015H101.986C102.216 30.25 102.467 29.9687 102.74 29.7567C103.012 29.5446 103.285 29.3784 103.557 29.257C103.83 29.136 104.093 29.0571 104.347 29.021C104.602 28.9846 104.832 28.9666 105.038 28.9666C105.607 28.9666 106.143 29.0634 106.645 29.257C107.148 29.4509 107.59 29.7507 107.971 30.1561C108.353 30.5621 108.653 31.0798 108.871 31.7095C109.089 32.3393 109.198 33.0839 109.198 33.9438C109.198 34.8399 109.083 35.6031 108.853 36.2328C108.623 36.8625 108.314 37.3772 107.926 37.7769C107.539 38.1766 107.097 38.4671 106.6 38.6487C106.104 38.8304 105.595 38.9214 105.074 38.9214C104.977 38.9214 104.805 38.9093 104.556 38.8849C104.308 38.8608 104.033 38.7911 103.73 38.6761C103.427 38.561 103.121 38.3914 102.812 38.1673C102.504 37.9434 102.246 37.6317 102.04 37.2319V41.9187H100.442V29.3298H101.931Z" fill="white"/>
</svg>