<svg width="137" height="90" viewBox="0 0 137 90" fill="none" xmlns="http://www.w3.org/2000/svg">
<path fill-rule="evenodd" clip-rule="evenodd" d="M32.3182 0H104.136C121.911 0 136.455 14.58 136.455 32.4H123.886C123.886 21.51 114.999 12.6 104.136 12.6H32.3182C21.4557 12.6 12.5682 21.51 12.5682 32.4H0C0 14.58 14.5432 0 32.3182 0ZM136.455 57.6C136.455 75.42 121.911 90 104.136 90H32.3182C14.5432 90 0 75.42 0 57.6H12.5682C12.5682 68.49 21.4557 77.4 32.3182 77.4H104.136C114.999 77.4 123.886 68.49 123.886 57.6H136.455Z" fill="#FF4800"/>
<path fill-rule="evenodd" clip-rule="evenodd" d="M111.317 36.0005H129.272C133.222 36.0005 136.453 39.2406 136.453 43.2005V46.8004C136.453 50.7602 133.222 54.0004 129.272 54.0004H111.317C107.367 54.0004 104.135 50.7604 104.135 46.8004V43.2005C104.135 39.2405 107.367 36.0005 111.317 36.0005ZM114.908 39.6004H125.681C127.656 39.6004 129.272 41.2208 129.272 43.2005V46.8004C129.272 48.7799 127.655 50.4003 125.681 50.4003H114.908C112.934 50.4003 111.317 48.7803 111.317 46.8004V43.2005C111.317 41.2205 112.933 39.6004 114.908 39.6004ZM77.2039 43.2005L84.8728 43.1706L95.1584 36.0005H104.136L91.5676 45.0011L104.136 54.0004H95.1584L84.8712 46.7707L77.2039 46.8004V54.0004H70.0221V36.0005H77.2039V43.2005ZM35.9088 36.0005H66.4313V39.6004H43.0906V43.2005H59.2495V46.8004H43.0906V50.4003H66.4313V54.0004H35.9088C35.9088 47.3909 35.9088 42.6098 35.9088 36.0005ZM0 36.0005C10.7728 36.0005 21.5453 36.0005 32.3179 36.0005V39.6004H19.7499V54.0004H12.5681V39.6004H0V36.0005Z" fill="#006644"/>
</svg>
