<?xml version="1.0" encoding="UTF-8"?>
<!DOCTYPE svg PUBLIC "-//W3C//DTD SVG 1.1//EN" "http://www.w3.org/Graphics/SVG/1.1/DTD/svg11.dtd">
<svg version="1.2" width="43.21mm" height="43.32mm" viewBox="2136 1306 4321 4332" preserveAspectRatio="xMidYMid" fill-rule="evenodd" stroke-width="28.222" stroke-linejoin="round" xmlns="http://www.w3.org/2000/svg" xmlns:ooo="http://xml.openoffice.org/svg/export" xmlns:xlink="http://www.w3.org/1999/xlink" xmlns:presentation="http://sun.com/xmlns/staroffice/presentation" xmlns:smil="http://www.w3.org/2001/SMIL20/" xmlns:anim="urn:oasis:names:tc:opendocument:xmlns:animation:1.0" xmlns:svg="urn:oasis:names:tc:opendocument:xmlns:svg-compatible:1.0" xml:space="preserve">
 <defs class="EmbeddedBulletChars">
  <g id="bullet-char-template-57356" transform="scale(0.00048828125,-0.00048828125)">
   <path d="M 580,1141 L 1163,571 580,0 -4,571 580,1141 Z"/>
  </g>
  <g id="bullet-char-template-57354" transform="scale(0.00048828125,-0.00048828125)">
   <path d="M 8,1128 L 1137,1128 1137,0 8,0 8,1128 Z"/>
  </g>
  <g id="bullet-char-template-10146" transform="scale(0.00048828125,-0.00048828125)">
   <path d="M 174,0 L 602,739 174,1481 1456,739 174,0 Z M 1358,739 L 309,1346 659,739 1358,739 Z"/>
  </g>
  <g id="bullet-char-template-10132" transform="scale(0.00048828125,-0.00048828125)">
   <path d="M 2015,739 L 1276,0 717,0 1260,543 174,543 174,936 1260,936 717,1481 1274,1481 2015,739 Z"/>
  </g>
  <g id="bullet-char-template-10007" transform="scale(0.00048828125,-0.00048828125)">
   <path d="M 0,-2 C -7,14 -16,27 -25,37 L 356,567 C 262,823 215,952 215,954 215,979 228,992 255,992 264,992 276,990 289,987 310,991 331,999 354,1012 L 381,999 492,748 772,1049 836,1024 860,1049 C 881,1039 901,1025 922,1006 886,937 835,863 770,784 769,783 710,716 594,584 L 774,223 C 774,196 753,168 711,139 L 727,119 C 717,90 699,76 672,76 641,76 570,178 457,381 L 164,-76 C 142,-110 111,-127 72,-127 30,-127 9,-110 8,-76 1,-67 -2,-52 -2,-32 -2,-23 -1,-13 0,-2 Z"/>
  </g>
  <g id="bullet-char-template-10004" transform="scale(0.00048828125,-0.00048828125)">
   <path d="M 285,-33 C 182,-33 111,30 74,156 52,228 41,333 41,471 41,549 55,616 82,672 116,743 169,778 240,778 293,778 328,747 346,684 L 369,508 C 377,444 397,411 428,410 L 1163,1116 C 1174,1127 1196,1133 1229,1133 1271,1133 1292,1118 1292,1087 L 1292,965 C 1292,929 1282,901 1262,881 L 442,47 C 390,-6 338,-33 285,-33 Z"/>
  </g>
  <g id="bullet-char-template-9679" transform="scale(0.00048828125,-0.00048828125)">
   <path d="M 813,0 C 632,0 489,54 383,161 276,268 223,411 223,592 223,773 276,916 383,1023 489,1130 632,1184 813,1184 992,1184 1136,1130 1245,1023 1353,916 1407,772 1407,592 1407,412 1353,268 1245,161 1136,54 992,0 813,0 Z"/>
  </g>
  <g id="bullet-char-template-8226" transform="scale(0.00048828125,-0.00048828125)">
   <path d="M 346,457 C 273,457 209,483 155,535 101,586 74,649 74,723 74,796 101,859 155,911 209,963 273,989 346,989 419,989 480,963 531,910 582,859 608,796 608,723 608,648 583,586 532,535 482,483 420,457 346,457 Z"/>
  </g>
  <g id="bullet-char-template-8211" transform="scale(0.00048828125,-0.00048828125)">
   <path d="M -4,459 L 1135,459 1135,606 -4,606 -4,459 Z"/>
  </g>
  <g id="bullet-char-template-61548" transform="scale(0.00048828125,-0.00048828125)">
   <path d="M 173,740 C 173,903 231,1043 346,1159 462,1274 601,1332 765,1332 928,1332 1067,1274 1183,1159 1299,1043 1357,903 1357,740 1357,577 1299,437 1183,322 1067,206 928,148 765,148 601,148 462,206 346,322 231,437 173,577 173,740 Z"/>
  </g>
 </defs>
 <g class="Page">
  <g class="com.sun.star.drawing.ClosedBezierShape">
   <g id="id3">
    <rect class="BoundingBox" stroke="none" fill="none" x="5789" y="2782" width="668" height="1997"/>
    <path fill="rgb(238,238,238)" stroke="none" d="M 6307,3056 L 6307,3198 6185,3198 6185,3058 C 6185,2996 6208,2966 6244,2966 L 6246,2966 C 6285,2966 6307,2999 6307,3056 Z M 6055,3082 L 6055,3198 5938,3198 5938,3079 C 5938,3024 5960,2995 5995,2995 L 5998,2995 C 6037,2995 6055,3027 6055,3082 Z M 5790,3378 L 6456,3378 6456,3035 C 6456,2875 6386,2782 6271,2782 L 6270,2782 C 6180,2782 6134,2833 6108,2915 6082,2855 6037,2811 5960,2811 L 5957,2811 C 5912,2811 5877,2827 5850,2855 5811,2893 5790,2952 5790,3037 L 5790,3378 Z M 5952,3846 L 6456,3846 6456,3662 5952,3662 5952,3463 5790,3463 5790,4046 5952,4046 5952,3846 Z M 5789,4778 L 6456,4778 6456,4596 6090,4596 6456,4312 6456,4150 5789,4150 5789,4333 6141,4333 5789,4606 5789,4778 Z "/>
   </g>
  </g>
  <g class="com.sun.star.drawing.ClosedBezierShape">
   <g id="id4">
    <rect class="BoundingBox" stroke="none" fill="none" x="3280" y="4952" width="2420" height="686"/>
    <path fill="rgb(238,238,238)" stroke="none" d="M 5402,5365 L 5254,5365 5328,5177 5402,5365 Z M 5241,4959 L 4960,5626 5153,5626 5200,5508 5455,5508 5503,5626 5699,5626 5418,4959 5241,4959 Z M 4697,4964 L 4697,5626 4881,5626 4881,4964 4697,4964 Z M 4032,5528 C 4113,5601 4224,5637 4341,5637 4502,5637 4609,5557 4609,5422 L 4609,5420 C 4609,5296 4514,5247 4362,5214 4271,5194 4248,5180 4248,5150 L 4248,5148 C 4248,5125 4270,5104 4314,5104 4372,5104 4439,5128 4499,5171 L 4591,5040 C 4520,4982 4431,4952 4319,4952 4160,4952 4063,5041 4063,5165 L 4063,5167 C 4063,5303 4171,5342 4313,5374 4402,5395 4424,5411 4424,5438 L 4424,5440 C 4424,5468 4398,5485 4348,5485 4271,5485 4199,5458 4134,5406 L 4032,5528 Z M 3722,5365 L 3573,5365 3649,5177 3722,5365 Z M 3561,4959 L 3280,5626 3472,5626 3520,5508 3775,5508 3823,5626 4020,5626 3738,4959 3561,4959 Z "/>
   </g>
  </g>
  <g class="com.sun.star.drawing.PolyPolygonShape">
   <g id="id5">
    <rect class="BoundingBox" stroke="none" fill="none" x="5789" y="4959" width="668" height="668"/>
    <path fill="rgb(227,0,15)" stroke="none" d="M 5789,4959 L 6456,4959 6456,5626 5789,5626 5789,4959 Z "/>
   </g>
  </g>
  <g class="com.sun.star.drawing.ClosedBezierShape">
   <g id="id6">
    <rect class="BoundingBox" stroke="none" fill="none" x="2136" y="1306" width="4321" height="4321"/>
    <path fill="rgb(238,238,238)" stroke="none" d="M 6456,1306 C 6456,1737 6456,2169 6456,2601 4865,2791 3793,3827 3190,5626 L 2136,5626 6456,1306 Z "/>
   </g>
  </g>
 </g>
</svg>