<?xml version="1.0" encoding="UTF-8"?>
<!DOCTYPE svg PUBLIC "-//W3C//DTD SVG 1.1//EN" "http://www.w3.org/Graphics/SVG/1.1/DTD/svg11.dtd">
<svg version="1.2" width="34mm" height="21.46mm" viewBox="8351 2644 3400 2146" preserveAspectRatio="xMidYMid" fill-rule="evenodd" stroke-width="28.222" stroke-linejoin="round" xmlns="http://www.w3.org/2000/svg" xmlns:ooo="http://xml.openoffice.org/svg/export" xmlns:xlink="http://www.w3.org/1999/xlink" xmlns:presentation="http://sun.com/xmlns/staroffice/presentation" xmlns:smil="http://www.w3.org/2001/SMIL20/" xmlns:anim="urn:oasis:names:tc:opendocument:xmlns:animation:1.0" xmlns:svg="urn:oasis:names:tc:opendocument:xmlns:svg-compatible:1.0" xml:space="preserve">
 <defs class="EmbeddedBulletChars">
  <g id="bullet-char-template-57356" transform="scale(0.00048828125,-0.00048828125)">
   <path d="M 580,1141 L 1163,571 580,0 -4,571 580,1141 Z"/>
  </g>
  <g id="bullet-char-template-57354" transform="scale(0.00048828125,-0.00048828125)">
   <path d="M 8,1128 L 1137,1128 1137,0 8,0 8,1128 Z"/>
  </g>
  <g id="bullet-char-template-10146" transform="scale(0.00048828125,-0.00048828125)">
   <path d="M 174,0 L 602,739 174,1481 1456,739 174,0 Z M 1358,739 L 309,1346 659,739 1358,739 Z"/>
  </g>
  <g id="bullet-char-template-10132" transform="scale(0.00048828125,-0.00048828125)">
   <path d="M 2015,739 L 1276,0 717,0 1260,543 174,543 174,936 1260,936 717,1481 1274,1481 2015,739 Z"/>
  </g>
  <g id="bullet-char-template-10007" transform="scale(0.00048828125,-0.00048828125)">
   <path d="M 0,-2 C -7,14 -16,27 -25,37 L 356,567 C 262,823 215,952 215,954 215,979 228,992 255,992 264,992 276,990 289,987 310,991 331,999 354,1012 L 381,999 492,748 772,1049 836,1024 860,1049 C 881,1039 901,1025 922,1006 886,937 835,863 770,784 769,783 710,716 594,584 L 774,223 C 774,196 753,168 711,139 L 727,119 C 717,90 699,76 672,76 641,76 570,178 457,381 L 164,-76 C 142,-110 111,-127 72,-127 30,-127 9,-110 8,-76 1,-67 -2,-52 -2,-32 -2,-23 -1,-13 0,-2 Z"/>
  </g>
  <g id="bullet-char-template-10004" transform="scale(0.00048828125,-0.00048828125)">
   <path d="M 285,-33 C 182,-33 111,30 74,156 52,228 41,333 41,471 41,549 55,616 82,672 116,743 169,778 240,778 293,778 328,747 346,684 L 369,508 C 377,444 397,411 428,410 L 1163,1116 C 1174,1127 1196,1133 1229,1133 1271,1133 1292,1118 1292,1087 L 1292,965 C 1292,929 1282,901 1262,881 L 442,47 C 390,-6 338,-33 285,-33 Z"/>
  </g>
  <g id="bullet-char-template-9679" transform="scale(0.00048828125,-0.00048828125)">
   <path d="M 813,0 C 632,0 489,54 383,161 276,268 223,411 223,592 223,773 276,916 383,1023 489,1130 632,1184 813,1184 992,1184 1136,1130 1245,1023 1353,916 1407,772 1407,592 1407,412 1353,268 1245,161 1136,54 992,0 813,0 Z"/>
  </g>
  <g id="bullet-char-template-8226" transform="scale(0.00048828125,-0.00048828125)">
   <path d="M 346,457 C 273,457 209,483 155,535 101,586 74,649 74,723 74,796 101,859 155,911 209,963 273,989 346,989 419,989 480,963 531,910 582,859 608,796 608,723 608,648 583,586 532,535 482,483 420,457 346,457 Z"/>
  </g>
  <g id="bullet-char-template-8211" transform="scale(0.00048828125,-0.00048828125)">
   <path d="M -4,459 L 1135,459 1135,606 -4,606 -4,459 Z"/>
  </g>
  <g id="bullet-char-template-61548" transform="scale(0.00048828125,-0.00048828125)">
   <path d="M 173,740 C 173,903 231,1043 346,1159 462,1274 601,1332 765,1332 928,1332 1067,1274 1183,1159 1299,1043 1357,903 1357,740 1357,577 1299,437 1183,322 1067,206 928,148 765,148 601,148 462,206 346,322 231,437 173,577 173,740 Z"/>
  </g>
 </defs>
 <g class="Page">
  <g class="com.sun.star.drawing.ClosedBezierShape">
   <g id="id3">
    <rect class="BoundingBox" stroke="none" fill="none" x="9652" y="3983" width="2099" height="701"/>
    <path fill="rgb(26,26,24)" stroke="none" d="M 11461,4526 L 11312,4526 11312,4398 11460,4398 C 11524,4398 11556,4423 11556,4461 L 11556,4463 C 11556,4503 11521,4526 11461,4526 Z M 11434,4262 L 11312,4262 11312,4139 11437,4139 C 11495,4139 11525,4162 11525,4199 L 11525,4202 C 11525,4243 11492,4262 11434,4262 Z M 11123,3984 L 11123,4683 11484,4683 C 11652,4683 11750,4610 11750,4489 L 11750,4488 C 11750,4393 11695,4345 11610,4317 11672,4291 11719,4243 11719,4162 L 11719,4159 C 11719,4112 11702,4074 11673,4047 11632,4006 11571,3984 11482,3984 L 11123,3984 Z M 10631,4154 L 10631,4683 10824,4683 10824,4154 11034,4154 11034,3984 10421,3984 10421,4154 10631,4154 Z M 9652,3983 L 9652,4683 9843,4683 9843,4299 10142,4683 10312,4683 10312,3983 10120,3983 10120,4352 9832,3983 9652,3983 Z "/>
   </g>
  </g>
  <g class="com.sun.star.drawing.ClosedBezierShape">
   <g id="id4">
    <rect class="BoundingBox" stroke="none" fill="none" x="8457" y="2644" width="3294" height="933"/>
    <path fill="rgb(26,26,24)" stroke="none" d="M 11343,3205 L 11142,3205 11244,2949 11343,3205 Z M 11125,2654 L 10743,3561 11005,3561 11069,3401 11416,3401 11481,3561 11750,3561 11365,2654 11125,2654 Z M 10384,2660 L 10384,3561 10635,3561 10635,2660 10384,2660 Z M 9479,3427 C 9590,3527 9741,3576 9900,3576 10119,3576 10264,3467 10264,3283 L 10264,3281 C 10264,3111 10136,3045 9929,2999 9804,2972 9773,2954 9773,2912 L 9773,2910 C 9773,2878 9803,2852 9863,2852 9942,2852 10033,2883 10115,2941 L 10240,2765 C 10143,2686 10023,2644 9869,2644 9654,2644 9521,2766 9521,2933 L 9521,2935 C 9521,3121 9669,3174 9861,3218 9983,3247 10012,3268 10012,3305 L 10012,3308 C 10012,3346 9977,3370 9909,3370 9805,3370 9707,3332 9617,3261 L 9479,3427 Z M 9058,3205 L 8856,3205 8958,2949 9058,3205 Z M 8839,2654 L 8457,3561 8719,3561 8783,3401 9130,3401 9195,3561 9463,3561 9079,2654 8839,2654 Z "/>
   </g>
  </g>
  <g class="com.sun.star.drawing.PolyPolygonShape">
   <g id="id5">
    <rect class="BoundingBox" stroke="none" fill="none" x="8351" y="3676" width="1115" height="1114"/>
    <path fill="rgb(26,26,24)" stroke="none" d="M 8351,3782 L 9358,3782 9358,4789 8351,4789 8351,3782 Z "/>
    <path fill="rgb(227,0,15)" stroke="none" d="M 8457,3676 L 9464,3676 9464,4683 8457,4683 8457,3676 Z "/>
   </g>
  </g>
 </g>
</svg>