<?xml version="1.0" encoding="UTF-8"?>
<!DOCTYPE svg PUBLIC "-//W3C//DTD SVG 1.1//EN" "http://www.w3.org/Graphics/SVG/1.1/DTD/svg11.dtd">
<svg version="1.2" width="31.65mm" height="28.56mm" viewBox="3051 7556 3165 2856" preserveAspectRatio="xMidYMid" fill-rule="evenodd" stroke-width="28.222" stroke-linejoin="round" xmlns="http://www.w3.org/2000/svg" xmlns:ooo="http://xml.openoffice.org/svg/export" xmlns:xlink="http://www.w3.org/1999/xlink" xmlns:presentation="http://sun.com/xmlns/staroffice/presentation" xmlns:smil="http://www.w3.org/2001/SMIL20/" xmlns:anim="urn:oasis:names:tc:opendocument:xmlns:animation:1.0" xmlns:svg="urn:oasis:names:tc:opendocument:xmlns:svg-compatible:1.0" xml:space="preserve">
 <defs class="EmbeddedBulletChars">
  <g id="bullet-char-template-57356" transform="scale(0.00048828125,-0.00048828125)">
   <path d="M 580,1141 L 1163,571 580,0 -4,571 580,1141 Z"/>
  </g>
  <g id="bullet-char-template-57354" transform="scale(0.00048828125,-0.00048828125)">
   <path d="M 8,1128 L 1137,1128 1137,0 8,0 8,1128 Z"/>
  </g>
  <g id="bullet-char-template-10146" transform="scale(0.00048828125,-0.00048828125)">
   <path d="M 174,0 L 602,739 174,1481 1456,739 174,0 Z M 1358,739 L 309,1346 659,739 1358,739 Z"/>
  </g>
  <g id="bullet-char-template-10132" transform="scale(0.00048828125,-0.00048828125)">
   <path d="M 2015,739 L 1276,0 717,0 1260,543 174,543 174,936 1260,936 717,1481 1274,1481 2015,739 Z"/>
  </g>
  <g id="bullet-char-template-10007" transform="scale(0.00048828125,-0.00048828125)">
   <path d="M 0,-2 C -7,14 -16,27 -25,37 L 356,567 C 262,823 215,952 215,954 215,979 228,992 255,992 264,992 276,990 289,987 310,991 331,999 354,1012 L 381,999 492,748 772,1049 836,1024 860,1049 C 881,1039 901,1025 922,1006 886,937 835,863 770,784 769,783 710,716 594,584 L 774,223 C 774,196 753,168 711,139 L 727,119 C 717,90 699,76 672,76 641,76 570,178 457,381 L 164,-76 C 142,-110 111,-127 72,-127 30,-127 9,-110 8,-76 1,-67 -2,-52 -2,-32 -2,-23 -1,-13 0,-2 Z"/>
  </g>
  <g id="bullet-char-template-10004" transform="scale(0.00048828125,-0.00048828125)">
   <path d="M 285,-33 C 182,-33 111,30 74,156 52,228 41,333 41,471 41,549 55,616 82,672 116,743 169,778 240,778 293,778 328,747 346,684 L 369,508 C 377,444 397,411 428,410 L 1163,1116 C 1174,1127 1196,1133 1229,1133 1271,1133 1292,1118 1292,1087 L 1292,965 C 1292,929 1282,901 1262,881 L 442,47 C 390,-6 338,-33 285,-33 Z"/>
  </g>
  <g id="bullet-char-template-9679" transform="scale(0.00048828125,-0.00048828125)">
   <path d="M 813,0 C 632,0 489,54 383,161 276,268 223,411 223,592 223,773 276,916 383,1023 489,1130 632,1184 813,1184 992,1184 1136,1130 1245,1023 1353,916 1407,772 1407,592 1407,412 1353,268 1245,161 1136,54 992,0 813,0 Z"/>
  </g>
  <g id="bullet-char-template-8226" transform="scale(0.00048828125,-0.00048828125)">
   <path d="M 346,457 C 273,457 209,483 155,535 101,586 74,649 74,723 74,796 101,859 155,911 209,963 273,989 346,989 419,989 480,963 531,910 582,859 608,796 608,723 608,648 583,586 532,535 482,483 420,457 346,457 Z"/>
  </g>
  <g id="bullet-char-template-8211" transform="scale(0.00048828125,-0.00048828125)">
   <path d="M -4,459 L 1135,459 1135,606 -4,606 -4,459 Z"/>
  </g>
  <g id="bullet-char-template-61548" transform="scale(0.00048828125,-0.00048828125)">
   <path d="M 173,740 C 173,903 231,1043 346,1159 462,1274 601,1332 765,1332 928,1332 1067,1274 1183,1159 1299,1043 1357,903 1357,740 1357,577 1299,437 1183,322 1067,206 928,148 765,148 601,148 462,206 346,322 231,437 173,577 173,740 Z"/>
  </g>
 </defs>
 <g class="Page">
  <g class="com.sun.star.drawing.ClosedBezierShape">
   <g id="id3">
    <rect class="BoundingBox" stroke="none" fill="none" x="5548" y="7556" width="667" height="1998"/>
    <path fill="rgb(26,26,24)" stroke="none" d="M 6066,7830 L 6066,7972 5944,7972 5944,7831 C 5944,7770 5968,7741 6004,7741 L 6006,7741 C 6044,7741 6066,7773 6066,7830 Z M 5815,7856 L 5815,7972 5698,7972 5698,7853 C 5698,7798 5719,7769 5755,7769 L 5757,7769 C 5796,7769 5815,7800 5815,7856 Z M 5549,8151 L 6214,8151 6214,7809 C 6214,7649 6145,7556 6031,7556 L 6029,7556 C 5939,7556 5893,7608 5867,7689 5842,7630 5796,7586 5719,7586 L 5717,7586 C 5672,7586 5635,7602 5609,7629 5570,7668 5549,7726 5549,7810 L 5549,8151 Z M 5711,8620 L 6214,8620 6214,8436 5711,8436 5711,8236 5549,8236 5549,8820 5711,8820 5711,8620 Z M 5548,9553 L 6214,9553 6214,9371 5849,9371 6214,9086 6214,8924 5548,8924 5548,9108 5900,9108 5548,9381 5548,9553 Z "/>
   </g>
  </g>
  <g class="com.sun.star.drawing.ClosedBezierShape">
   <g id="id4">
    <rect class="BoundingBox" stroke="none" fill="none" x="3051" y="9727" width="2408" height="685"/>
    <path fill="rgb(26,26,24)" stroke="none" d="M 5162,10140 L 5015,10140 5089,9951 5162,10140 Z M 5003,9733 L 4723,10400 4914,10400 4961,10283 5214,10283 5262,10400 5458,10400 5178,9733 5003,9733 Z M 4461,9739 L 4461,10400 4645,10400 4645,9739 4461,9739 Z M 3800,10302 C 3881,10375 3992,10411 4108,10411 4267,10411 4373,10332 4373,10196 L 4373,10194 C 4373,10071 4280,10022 4129,9988 4037,9968 4014,9955 4014,9925 L 4014,9923 C 4014,9898 4036,9879 4081,9879 4139,9879 4204,9902 4265,9946 L 4356,9815 C 4285,9757 4197,9727 4085,9727 3928,9727 3830,9816 3830,9940 L 3830,9941 C 3830,10078 3939,10117 4079,10149 4168,10170 4189,10185 4189,10212 L 4189,10215 C 4189,10242 4164,10260 4115,10260 4038,10260 3967,10232 3901,10180 L 3800,10302 Z M 3491,10140 L 3344,10140 3419,9951 3491,10140 Z M 3331,9733 L 3052,10400 3244,10400 3291,10283 3544,10283 3592,10400 3789,10400 3507,9733 3331,9733 Z "/>
   </g>
  </g>
  <g class="com.sun.star.drawing.PolyPolygonShape">
   <g id="id5">
    <rect class="BoundingBox" stroke="none" fill="none" x="5548" y="9734" width="668" height="667"/>
    <path fill="rgb(227,0,15)" stroke="none" d="M 5548,9734 L 6214,9734 6214,10400 5548,10400 5548,9734 Z "/>
   </g>
  </g>
  <g class="com.sun.star.drawing.PolyPolygonShape">
   <g id="id6">
    <rect class="BoundingBox" stroke="none" fill="none" x="3381" y="7851" width="1987" height="1703"/>
    <path fill="rgb(26,26,24)" stroke="none" d="M 5367,9553 L 3381,9553 5367,7851 5367,9553 Z "/>
   </g>
  </g>
 </g>
</svg>